<svg version="1.1" viewBox="0 0 400 400" xmlns="http://www.w3.org/2000/svg" xmlns:xlink="http://www.w3.org/1999/xlink"><defs><g class="white pawn" id="white-pawn"><path d="M22 9c-2.21 0-4 1.79-4 4 0 .89.29 1.71.78 2.38-1.95 1.12-3.28 3.21-3.28 5.62 0 2.03.94 3.84 2.41 5.03-3 1.06-7.41 5.55-7.41 13.47h23c0-7.92-4.41-12.41-7.41-13.47 1.47-1.19 2.41-3 2.41-5.03 0-2.41-1.33-4.5-3.28-5.62.49-.67.78-1.49.78-2.38 0-2.21-1.79-4-4-4z" fill="#fff" stroke="#000" stroke-linecap="round" stroke-width="1.5" /></g><g class="white king" fill="none" fill-rule="evenodd" id="white-king" stroke="#000" stroke-linecap="round" stroke-linejoin="round" stroke-width="1.5"><path d="M22.5 11.63V6M20 8h5" stroke-linejoin="miter" /><path d="M22.5 25s4.5-7.5 3-10.5c0 0-1-2.5-3-2.5s-3 2.5-3 2.5c-1.5 3 3 10.5 3 10.5" fill="#fff" stroke-linecap="butt" stroke-linejoin="miter" /><path d="M11.5 37c5.5 3.5 15.5 3.5 21 0v-7s9-4.5 6-10.5c-4-6.5-13.5-3.5-16 4V27v-3.5c-3.5-7.5-13-10.5-16-4-3 6 5 10 5 10V37z" fill="#fff" /><path d="M11.5 30c5.5-3 15.5-3 21 0m-21 3.5c5.5-3 15.5-3 21 0m-21 3.5c5.5-3 15.5-3 21 0" /></g><g class="black pawn" id="black-pawn"><path d="M22 9c-2.21 0-4 1.79-4 4 0 .89.29 1.71.78 2.38-1.95 1.12-3.28 3.21-3.28 5.62 0 2.03.94 3.84 2.41 5.03-3 1.06-7.41 5.55-7.41 13.47h23c0-7.92-4.41-12.41-7.41-13.47 1.47-1.19 2.41-3 2.41-5.03 0-2.41-1.33-4.5-3.28-5.62.49-.67.78-1.49.78-2.38 0-2.21-1.79-4-4-4z" stroke="#000" stroke-linecap="round" stroke-width="1.5" /></g><g class="black king" fill="none" fill-rule="evenodd" id="black-king" stroke="#000" stroke-linecap="round" stroke-linejoin="round" stroke-width="1.5"><path d="M22.5 11.63V6" stroke-linejoin="miter" /><path d="M22.5 25s4.5-7.5 3-10.5c0 0-1-2.5-3-2.5s-3 2.5-3 2.5c-1.5 3 3 10.5 3 10.5" fill="#000" stroke-linecap="butt" stroke-linejoin="miter" /><path d="M11.5 37c5.5 3.5 15.5 3.5 21 0v-7s9-4.5 6-10.5c-4-6.5-13.5-3.5-16 4V27v-3.5c-3.5-7.5-13-10.5-16-4-3 6 5 10 5 10V37z" fill="#000" /><path d="M20 8h5" stroke-linejoin="miter" /><path d="M32 29.5s8.5-4 6.03-9.65C34.15 14 25 18 22.5 24.5l.01 2.1-.01-2.1C20 18 9.906 14 6.997 19.85c-2.497 5.65 4.853 9 4.853 9M11.5 30c5.5-3 15.5-3 21 0m-21 3.5c5.5-3 15.5-3 21 0m-21 3.5c5.5-3 15.5-3 21 0" stroke="#fff" /></g></defs><rect class="square dark a1" fill="#696969" height="45" stroke="none" width="45" x="20" y="335" /><rect class="square light b1" fill="#c2c2c2" height="45" stroke="none" width="45" x="65" y="335" /><rect class="square dark c1" fill="#696969" height="45" stroke="none" width="45" x="110" y="335" /><rect class="square light d1" fill="#c2c2c2" height="45" stroke="none" width="45" x="155" y="335" /><rect class="square dark e1" fill="#696969" height="45" stroke="none" width="45" x="200" y="335" /><rect class="square light f1" fill="#c2c2c2" height="45" stroke="none" width="45" x="245" y="335" /><rect class="square dark g1" fill="#696969" height="45" stroke="none" width="45" x="290" y="335" /><rect class="square light h1" fill="#c2c2c2" height="45" stroke="none" width="45" x="335" y="335" /><rect class="square light a2" fill="#c2c2c2" height="45" stroke="none" width="45" x="20" y="290" /><rect class="square dark b2" fill="#696969" height="45" stroke="none" width="45" x="65" y="290" /><rect class="square light c2" fill="#c2c2c2" height="45" stroke="none" width="45" x="110" y="290" /><rect class="square dark d2" fill="#696969" height="45" stroke="none" width="45" x="155" y="290" /><rect class="square light e2" fill="#c2c2c2" height="45" stroke="none" width="45" x="200" y="290" /><rect class="square dark f2" fill="#696969" height="45" stroke="none" width="45" x="245" y="290" /><rect class="square light g2" fill="#c2c2c2" height="45" stroke="none" width="45" x="290" y="290" /><rect class="square dark h2" fill="#696969" height="45" stroke="none" width="45" x="335" y="290" /><rect class="square dark a3" fill="#696969" height="45" stroke="none" width="45" x="20" y="245" /><rect class="square light b3" fill="#c2c2c2" height="45" stroke="none" width="45" x="65" y="245" /><rect class="square dark c3" fill="#696969" height="45" stroke="none" width="45" x="110" y="245" /><rect class="square light d3" fill="#c2c2c2" height="45" stroke="none" width="45" x="155" y="245" /><use transform="translate(155, 245)" xlink:href="#white-king" /><rect class="square dark e3" fill="#696969" height="45" stroke="none" width="45" x="200" y="245" /><rect class="square light f3" fill="#c2c2c2" height="45" stroke="none" width="45" x="245" y="245" /><rect class="square dark g3" fill="#696969" height="45" stroke="none" width="45" x="290" y="245" /><rect class="square light h3" fill="#c2c2c2" height="45" stroke="none" width="45" x="335" y="245" /><rect class="square light a4" fill="#c2c2c2" height="45" stroke="none" width="45" x="20" y="200" /><rect class="square dark b4" fill="#696969" height="45" stroke="none" width="45" x="65" y="200" /><rect class="square light c4" fill="#c2c2c2" height="45" stroke="none" width="45" x="110" y="200" /><rect class="square dark d4" fill="#696969" height="45" stroke="none" width="45" x="155" y="200" /><rect class="square light e4" fill="#c2c2c2" height="45" stroke="none" width="45" x="200" y="200" /><use transform="translate(200, 200)" xlink:href="#white-pawn" /><rect class="square dark f4" fill="#696969" height="45" stroke="none" width="45" x="245" y="200" /><rect class="square light g4" fill="#c2c2c2" height="45" stroke="none" width="45" x="290" y="200" /><use transform="translate(290, 200)" xlink:href="#white-pawn" /><rect class="square dark h4" fill="#696969" height="45" stroke="none" width="45" x="335" y="200" /><use transform="translate(335, 200)" xlink:href="#white-pawn" /><rect class="square dark a5" fill="#696969" height="45" stroke="none" width="45" x="20" y="155" /><rect class="square light b5" fill="#c2c2c2" height="45" stroke="none" width="45" x="65" y="155" /><rect class="square dark c5" fill="#696969" height="45" stroke="none" width="45" x="110" y="155" /><rect class="square light d5" fill="#c2c2c2" height="45" stroke="none" width="45" x="155" y="155" /><rect class="square dark e5" fill="#696969" height="45" stroke="none" width="45" x="200" y="155" /><rect class="square light f5" fill="#c2c2c2" height="45" stroke="none" width="45" x="245" y="155" /><use transform="translate(245, 155)" xlink:href="#white-pawn" /><rect class="square dark g5" fill="#696969" height="45" stroke="none" width="45" x="290" y="155" /><rect class="square light h5" fill="#c2c2c2" height="45" stroke="none" width="45" x="335" y="155" /><rect class="square light a6" fill="#c2c2c2" height="45" stroke="none" width="45" x="20" y="110" /><rect class="square dark b6" fill="#696969" height="45" stroke="none" width="45" x="65" y="110" /><rect class="square light c6" fill="#c2c2c2" height="45" stroke="none" width="45" x="110" y="110" /><use transform="translate(110, 110)" xlink:href="#black-king" /><rect class="square dark d6" fill="#696969" height="45" stroke="none" width="45" x="155" y="110" /><rect class="square light e6" fill="#c2c2c2" height="45" stroke="none" width="45" x="200" y="110" /><rect class="square dark f6" fill="#696969" height="45" stroke="none" width="45" x="245" y="110" /><use transform="translate(245, 110)" xlink:href="#black-pawn" /><rect class="square light g6" fill="#c2c2c2" height="45" stroke="none" width="45" x="290" y="110" /><rect class="square dark h6" fill="#696969" height="45" stroke="none" width="45" x="335" y="110" /><use transform="translate(335, 110)" xlink:href="#black-pawn" /><rect class="square dark a7" fill="#696969" height="45" stroke="none" width="45" x="20" y="65" /><rect class="square light b7" fill="#c2c2c2" height="45" stroke="none" width="45" x="65" y="65" /><use transform="translate(65, 65)" xlink:href="#black-pawn" /><rect class="square dark c7" fill="#696969" height="45" stroke="none" width="45" x="110" y="65" /><rect class="square light d7" fill="#c2c2c2" height="45" stroke="none" width="45" x="155" y="65" /><rect class="square dark e7" fill="#696969" height="45" stroke="none" width="45" x="200" y="65" /><rect class="square light f7" fill="#c2c2c2" height="45" stroke="none" width="45" x="245" y="65" /><rect class="square dark g7" fill="#696969" height="45" stroke="none" width="45" x="290" y="65" /><use transform="translate(290, 65)" xlink:href="#black-pawn" /><rect class="square light h7" fill="#c2c2c2" height="45" stroke="none" width="45" x="335" y="65" /><rect class="square light a8" fill="#c2c2c2" height="45" stroke="none" width="45" x="20" y="20" /><rect class="square dark b8" fill="#696969" height="45" stroke="none" width="45" x="65" y="20" /><rect class="square light c8" fill="#c2c2c2" height="45" stroke="none" width="45" x="110" y="20" /><rect class="square dark d8" fill="#696969" height="45" stroke="none" width="45" x="155" y="20" /><rect class="square light e8" fill="#c2c2c2" height="45" stroke="none" width="45" x="200" y="20" /><rect class="square dark f8" fill="#696969" height="45" stroke="none" width="45" x="245" y="20" /><rect class="square light g8" fill="#c2c2c2" height="45" stroke="none" width="45" x="290" y="20" /><rect class="square dark h8" fill="#696969" height="45" stroke="none" width="45" x="335" y="20" /><text alignment-baseline="middle" font-size="14" text-anchor="middle" x="42" y="10">a</text><text alignment-baseline="middle" font-size="14" text-anchor="middle" x="42" y="390">a</text><text alignment-baseline="middle" font-size="14" text-anchor="middle" x="87" y="10">b</text><text alignment-baseline="middle" font-size="14" text-anchor="middle" x="87" y="390">b</text><text alignment-baseline="middle" font-size="14" text-anchor="middle" x="132" y="10">c</text><text alignment-baseline="middle" font-size="14" text-anchor="middle" x="132" y="390">c</text><text alignment-baseline="middle" font-size="14" text-anchor="middle" x="177" y="10">d</text><text alignment-baseline="middle" font-size="14" text-anchor="middle" x="177" y="390">d</text><text alignment-baseline="middle" font-size="14" text-anchor="middle" x="222" y="10">e</text><text alignment-baseline="middle" font-size="14" text-anchor="middle" x="222" y="390">e</text><text alignment-baseline="middle" font-size="14" text-anchor="middle" x="267" y="10">f</text><text alignment-baseline="middle" font-size="14" text-anchor="middle" x="267" y="390">f</text><text alignment-baseline="middle" font-size="14" text-anchor="middle" x="312" y="10">g</text><text alignment-baseline="middle" font-size="14" text-anchor="middle" x="312" y="390">g</text><text alignment-baseline="middle" font-size="14" text-anchor="middle" x="357" y="10">h</text><text alignment-baseline="middle" font-size="14" text-anchor="middle" x="357" y="390">h</text><text alignment-baseline="middle" font-size="14" text-anchor="middle" x="10" y="357">1</text><text alignment-baseline="middle" font-size="14" text-anchor="middle" x="390" y="357">1</text><text alignment-baseline="middle" font-size="14" text-anchor="middle" x="10" y="312">2</text><text alignment-baseline="middle" font-size="14" text-anchor="middle" x="390" y="312">2</text><text alignment-baseline="middle" font-size="14" text-anchor="middle" x="10" y="267">3</text><text alignment-baseline="middle" font-size="14" text-anchor="middle" x="390" y="267">3</text><text alignment-baseline="middle" font-size="14" text-anchor="middle" x="10" y="222">4</text><text alignment-baseline="middle" font-size="14" text-anchor="middle" x="390" y="222">4</text><text alignment-baseline="middle" font-size="14" text-anchor="middle" x="10" y="177">5</text><text alignment-baseline="middle" font-size="14" text-anchor="middle" x="390" y="177">5</text><text alignment-baseline="middle" font-size="14" text-anchor="middle" x="10" y="132">6</text><text alignment-baseline="middle" font-size="14" text-anchor="middle" x="390" y="132">6</text><text alignment-baseline="middle" font-size="14" text-anchor="middle" x="10" y="87">7</text><text alignment-baseline="middle" font-size="14" text-anchor="middle" x="390" y="87">7</text><text alignment-baseline="middle" font-size="14" text-anchor="middle" x="10" y="42">8</text><text alignment-baseline="middle" font-size="14" text-anchor="middle" x="390" y="42">8</text><line class="arrow" opacity="0.5" stroke="#e6e600" stroke-linecap="butt" stroke-width="9.0" x1="222.5" x2="222.5" y1="222.5" y2="215.75" /><polygon class="arrow" fill="#e6e600" opacity="0.5" points="222.5,182.0 205.625,215.75 239.375,215.75" /><circle cx="357.5" cy="222.5" fill="none" opacity="0.5" r="20.25" stroke="#00ff00" stroke-width="4.5" /><circle cx="312.5" cy="222.5" fill="none" opacity="0.5" r="20.25" stroke="#ffff00" stroke-width="4.5" /></svg>